# xmcd CD database file
#
# Track frame offsets:
#	150
#	35589
#	70873
#	102029
#	146163
#	171947
#	205627
#	236597
#
# Disc length: 3538 seconds
#
# Revision: 0
# Processed by: cddbd v1.5.2PL0 Copyright (c) Steve Scherf et al.
# Submitted via: CDex 1.70beta3
#
DISCID=6c0dd008
DTITLE=Richard Davis - Blue Monk (King KICJ541)
DYEAR=2007
DGENRE=Jazz
TTITLE0=Blue Monk
TTITLE1=Summertime
TTITLE2=Single Petal Of A Rose
TTITLE3=There Is No Greater Love
TTITLE4=Blue Bossa
TTITLE5=Dear Old Stockholm
TTITLE6=On The Trail
TTITLE7=In A Sentimental Mood
EXTD=YEAR: 2007
EXTT0=
EXTT1=
EXTT2=
EXTT3=
EXTT4=
EXTT5=
EXTT6=
EXTT7=
PLAYORDER=
